{"title":"Ray Donovan S01E11 720p x264 [MKV,AC3,5.1] Ehhhh","uid":8927923,"size":540622597,"categoryP":"video","categoryS":"hd___tv_shows","magnet":"?xt=urn:btih:4214b877efd89c0d2a1aec44d5d1ffc9f0529e97&amp;dn=Ray+Donovan+S01E11+720p+x264+%5BMKV%2CAC3%2C5.1%5D+Ehhhh&amp;tr=udp%3A%2F%2Ftracker.openbittorrent.com%3A80&amp;tr=udp%3A%2F%2Fopen.demonii.com%3A1337&amp;tr=udp%3A%2F%2Ftracker.coppersurfer.tk%3A6969&amp;tr=udp%3A%2F%2Fexodus.desync.com%3A6969","seeders":0,"leechers":1,"uploader":"Ehhhhtozebec","files":-1,"time":1379400162,"description":"\nimage image\n\nIMDb link\n\nBucky F**kn' Dent Season 1, Episode 11\n\nBunchy has a violent encounter with someone from his past; Ray tries to handle a crisis at the Donovan Fite Club; the police question Mickey about a recent murder; Ray sends Avi to protect Abby and the kids from Sully.\n\n\nimage\n\nGeneral\nFormat : Matroska\nFormat version : Version 4 / Version 2\nFile size : 515 MiB\nDuration : 52mn 40s\nOverall bit rate : 1 366 Kbps\nEncoded date : UTC 2013-09-16 19:18:21\nWriting application : mkvmerge v6.2.0 ('Promised Land') built on Apr 28 2013 12:22:01\nWriting library : libebml v1.3.0 + libmatroska v1.4.0\n\nVideo\nID : 1\nFormat : AVC\nFormat/Info : Advanced Video Codec\nFormat profile : &lt;a class=&quot;__cf_email__&quot; href=&quot;/cdn-cgi/l/email-protection&quot; data-cfemail=&quot;460e2f212e060a726877&quot;&gt;[email&amp;#160;protected]&lt;/a&gt;&lt;script cf-hash='f9e31' type=&quot;text/javascript&quot;&gt;\n/* &lt;![CDATA[ */!function(){try{var t=&quot;currentScript&quot;in document?document.currentScript:function(){for(var t=document.getElementsByTagName(&quot;script&quot;),e=t.length;e--;)if(t[e].getAttribute(&quot;cf-hash&quot;))return t[e]}();if(t&amp;&amp;t.previousSibling){var e,r,n,i,c=t.previousSibling,a=c.getAttribute(&quot;data-cfemail&quot;);if(a){for(e=&quot;&quot;,r=parseInt(a.substr(0,2),16),n=2;a.length-n;n+=2)i=parseInt(a.substr(n,2),16)^r,e+=String.fromCharCode(i);e=document.createTextNode(e),c.parentNode.replaceChild(e,c)}}}catch(u){}}();/* ]]&gt; */&lt;/script&gt;\nFormat settings, CABAC : Yes\nFormat settings, ReFrames : 14 frames\nCodec ID : V_MPEG4/ISO/AVC\nDuration : 52mn 40s\nBit rate : 955 Kbps\nNominal bit rate : 1 010 Kbps\nWidth : 1 280 pixels\nHeight : 720 pixels\nDisplay aspect ratio : 16:9\nFrame rate mode : Constant\nFrame rate : 23.976 fps\nColor space : YUV\nChroma subsampling : 4:2:0\nBit depth : 8 bits\nScan type : Progressive\nBits/(Pixel*Frame) : 0.043\nStream size : 360 MiB (70%)\nWriting library : x264 core 138 r2359+704+48 3f879a0 tMod [8-bit@all X86]\nDefault : Yes\nForced : No\n\nAudio\nID : 2\nFormat : AC-3\nFormat/Info : Audio Coding 3\nMode extension : CM (complete main)\nFormat settings, Endianness : Big\nCodec ID : A_AC3\nDuration : 52mn 40s\nBit rate mode : Constant\nBit rate : 384 Kbps\nChannel(s) : 6 channels\nChannel positions : Front: L C R, Side: L R, LFE\nSampling rate : 48.0 KHz\nBit depth : 16 bits\nCompression mode : Lossy\nStream size : 145 MiB (28%)\nDefault : Yes\nForced : No\n\n","torrent":{"xt":"urn:btih:4214b877efd89c0d2a1aec44d5d1ffc9f0529e97","amp;dn":"Ray+Donovan+S01E11+720p+x264+%5BMKV%2CAC3%2C5.1%5D+Ehhhh","amp;tr":["udp%3A%2F%2Ftracker.openbittorrent.com%3A80","udp%3A%2F%2Fopen.demonii.com%3A1337","udp%3A%2F%2Ftracker.coppersurfer.tk%3A6969","udp%3A%2F%2Fexodus.desync.com%3A6969"],"infoHash":"4214b877efd89c0d2a1aec44d5d1ffc9f0529e97","infoHashBuffer":{"type":"Buffer","data":[66,20,184,119,239,216,156,13,42,26,236,68,213,209,255,201,240,82,158,151]},"announce":[],"urlList":[]}}